<svg width="67" height="21" viewBox="0 0 67 21" fill="none" xmlns="http://www.w3.org/2000/svg">
<g clip-path="url(#clip0)">
<path d="M9.87251 15.9397C9.87251 15.1027 9.8816 12.8655 9.86097 12.5899C9.87895 9.2609 7.45874 6.9126 5.92976 7.09567C4.87176 7.18749 3.98507 7.61894 3.50898 8.86012C3.06772 10.0169 3.46222 11.5554 4.9293 11.9165C6.49804 12.3042 7.41407 12.6268 8.077 13.0819C8.88929 13.6391 9.55241 14.7036 9.57001 15.941" fill="#0060AF"/>
<path d="M10.4984 21C7.73237 21 4.88964 20.3186 2.0507 18.971L1.98103 18.9368L1.94772 18.8658C0.673723 16.1763 0 13.2347 0 10.3566C0 7.48297 0.646084 4.66723 1.92103 1.98137L1.95605 1.90999L2.02703 1.8744C4.6532 0.630198 7.47833 -4.48227e-05 10.4265 -4.48227e-05C13.1729 -4.48227e-05 16.1059 0.70157 18.9072 2.03248L18.9791 2.06448L19.0122 2.13717C20.3107 4.87624 20.9954 7.81712 20.9954 10.6474C20.9954 13.4668 20.3379 16.285 19.038 19.0223L19.0037 19.0943L18.9314 19.1276C16.3454 20.3519 13.429 21 10.4984 21ZM2.31345 18.6022C5.07137 19.8996 7.82191 20.5549 10.4984 20.5549C13.3364 20.5549 16.1589 19.9345 18.6713 18.7584C19.9194 16.1059 20.552 13.3759 20.552 10.6474C20.552 7.90799 19.8917 5.05837 18.6427 2.39995C15.9242 1.12186 13.085 0.444097 10.4265 0.444097C7.57222 0.444097 4.83645 1.04954 2.28959 2.24395C1.06709 4.84727 0.444858 7.57516 0.444858 10.3566C0.444858 13.1434 1.09151 15.9942 2.31345 18.6022Z" fill="#0060AF"/>
<path d="M9.21663 15.941C9.22174 14.8682 8.62298 13.9195 7.84041 13.4096C7.14624 12.9591 6.21431 12.663 4.71089 12.2817C4.24615 12.1628 3.76003 11.8987 3.60953 11.5621C3.21143 11.9632 3.13912 12.8652 3.20916 13.3922C3.29056 14.0022 4.00328 15.0075 5.07642 15.0469C5.73179 15.0732 6.56036 14.9058 6.9577 14.8214C7.64316 14.6733 8.72766 15.1027 8.90031 15.9397" fill="#0060AF"/>
<path d="M10.4267 1.90739C8.60712 1.90739 7.03535 3.10748 7.04103 5.18411C7.04671 6.9304 8.45095 7.86525 8.95202 8.53299C9.70923 9.5392 10.1191 10.7302 10.1617 12.5526C10.1948 14.003 10.1931 15.4352 10.2005 15.9427H10.6022C10.5952 15.4117 10.577 13.8913 10.5978 12.5077C10.6251 10.6848 11.0497 9.5392 11.8072 8.53299C12.3127 7.86525 13.7158 6.9304 13.7188 5.18411C13.7256 3.10748 12.1548 1.90739 10.3368 1.90739" fill="#0060AF"/>
<path d="M10.8884 15.9397C10.8884 15.1027 10.879 12.8655 10.8992 12.5899C10.8814 9.2609 13.3001 6.9126 14.8304 7.09567C15.8884 7.18749 16.7742 7.61894 17.2516 8.86012C17.6925 10.0169 17.2957 11.5554 15.8303 11.9165C14.2608 12.3042 13.3459 12.6268 12.6813 13.0819C11.87 13.6391 11.2532 14.7036 11.2343 15.941" fill="#0060AF"/>
<path d="M11.5435 15.941C11.5378 14.8682 12.1364 13.9195 12.9167 13.4096C13.6137 12.9591 14.5467 12.663 16.0488 12.2817C16.5145 12.1628 17.0001 11.8987 17.1479 11.5621C17.5479 11.9632 17.62 12.8652 17.55 13.3922C17.4669 14.0022 16.7561 15.0075 15.6848 15.0469C15.0296 15.0732 14.1967 14.9058 13.8011 14.8214C13.1183 14.6733 12.0308 15.1027 11.8574 15.9397" fill="#0060AF"/>
<path d="M12.1049 19.4046L11.8721 17.7055L12.4341 17.6203C12.571 17.6015 12.7376 17.6254 12.8042 17.7112C12.8778 17.8007 12.9004 17.8747 12.9146 17.9921C12.9358 18.1373 12.8937 18.3052 12.7302 18.3889V18.394C12.9128 18.394 13.0232 18.5252 13.0552 18.7467C13.0599 18.7935 13.0738 18.9065 13.0599 19.0008C13.0228 19.2251 12.889 19.2973 12.6632 19.3289L12.1049 19.4046ZM12.4667 19.1004C12.5333 19.0909 12.6009 19.0873 12.6537 19.0536C12.7345 19.0008 12.7271 18.8878 12.716 18.8039C12.6878 18.6195 12.6397 18.5495 12.4441 18.5784L12.3213 18.5974L12.3991 19.1098L12.4667 19.1004ZM12.3489 18.3153C12.4233 18.3032 12.5242 18.2943 12.5662 18.2236C12.5882 18.1765 12.6164 18.139 12.5979 18.0341C12.5749 17.9097 12.5337 17.8327 12.3758 17.8626L12.2287 17.8863L12.2866 18.3217" fill="#0060AF"/>
<path d="M14.5394 18.3827C14.5438 18.4143 14.5489 18.4495 14.5508 18.4811C14.5962 18.791 14.5394 19.0476 14.1911 19.1182C13.6762 19.2174 13.5776 18.8974 13.4869 18.4495L13.4386 18.2072C13.3676 17.7785 13.3371 17.4541 13.8392 17.3541C14.1222 17.3024 14.3092 17.4151 14.387 17.6968C14.3991 17.7388 14.4143 17.7804 14.42 17.8227L14.112 17.8863C14.0764 17.7804 14.0292 17.5913 13.8907 17.6072C13.6419 17.6371 13.7241 17.9467 13.7496 18.076L13.8422 18.5411C13.87 18.6818 13.9253 18.9065 14.1405 18.8632C14.3153 18.8281 14.2392 18.5559 14.2236 18.4444" fill="#0060AF"/>
<path d="M15.0338 18.8969L14.9272 17.1385L15.3411 17.0122L16.2086 18.5415L15.8828 18.639L15.6773 18.2503L15.3155 18.359L15.3623 18.8009L15.0338 18.8969ZM15.2852 18.075L15.5466 17.9993L15.1995 17.2878" fill="#0060AF"/>
<path d="M4.81327 17.5675C4.94275 17.1528 5.0588 16.8477 5.55287 16.9832C5.81732 17.057 5.98126 17.1737 5.97349 17.4809C5.97222 17.5493 5.94964 17.6189 5.93488 17.6865L5.62726 17.6015C5.66758 17.4319 5.69314 17.2973 5.48415 17.2329C5.24261 17.1667 5.18373 17.4595 5.15042 17.586L5.02529 18.047C4.98554 18.1839 4.93783 18.4101 5.15042 18.4684C5.32609 18.5157 5.43266 18.3433 5.49627 18.0915L5.28103 18.0345L5.35543 17.7677L5.86143 17.9306L5.62121 18.819L5.38837 18.7558L5.4408 18.568H5.43417C5.32703 18.7215 5.19622 18.7376 5.0817 18.7157C4.5757 18.5788 4.62851 18.2481 4.74929 17.8062" fill="#0060AF"/>
<path d="M6.69608 18.3179L6.5437 19.0407L6.20068 18.9665L6.56622 17.2787L7.15097 17.4109C7.49323 17.4847 7.59659 17.6371 7.54813 17.9508C7.52049 18.1309 7.43171 18.3249 7.21496 18.3092L7.21269 18.3063C7.39593 18.3704 7.41145 18.4628 7.37946 18.6226C7.36565 18.6906 7.27042 19.1031 7.33611 19.1697L7.33838 19.2203L6.98344 19.1277C6.96868 19.0134 7.01884 18.8078 7.03872 18.694C7.05878 18.5933 7.09077 18.4513 6.98855 18.3979C6.90848 18.3553 6.87876 18.3574 6.78827 18.3366L6.69608 18.3179ZM6.75458 18.0565L6.98552 18.1188C7.1258 18.139 7.20379 18.0663 7.23143 17.8969C7.25641 17.7414 7.22404 17.6807 7.09816 17.6506L6.85055 17.6004" fill="#0060AF"/>
<path d="M8.89618 17.6559L9.23541 17.6953L9.08927 18.8817C9.01828 19.2579 8.8729 19.4224 8.45908 19.3709C8.03807 19.3177 7.93812 19.1259 7.96368 18.7467L8.11077 17.5612L8.45265 17.6004L8.30594 18.7594C8.29041 18.8853 8.26126 19.0718 8.48521 19.0943C8.68378 19.1095 8.72884 18.9779 8.75118 18.8143" fill="#0060AF"/>
<path d="M9.60986 19.4358L9.7119 17.7392L10.3637 17.7674C10.6717 17.7825 10.7523 18.0341 10.7426 18.2742C10.7337 18.4202 10.6881 18.5832 10.5609 18.6716C10.4566 18.7467 10.3226 18.7645 10.1982 18.7585L9.98581 18.7467L9.94341 19.4578L9.60986 19.4358ZM9.99547 18.4879L10.1681 18.4976C10.3084 18.5027 10.4013 18.4472 10.4134 18.2412C10.4203 18.0434 10.3455 18.0099 10.1638 18.0019L10.0269 17.9973" fill="#0060AF"/>
<path d="M55.5777 3.54727L52.9873 8.24937C52.0095 7.45537 50.8156 6.87094 49.2923 6.87094C45.6875 6.87094 44.2232 9.55833 44.2232 11.4513C44.2232 12.8565 45.1432 14.9297 48.3507 14.9297C49.697 14.9297 51.6111 13.9929 52.1619 13.5668L49.5999 19.022C48.3788 19.2657 47.9776 19.4167 46.9439 19.4487C41.2029 19.6201 38.8831 16.0931 38.8848 12.489C38.8886 7.72458 43.1241 1.93029 50.1457 1.93029C50.576 1.93029 51.1022 2.0791 51.5522 2.24399L52.0069 1.66241" fill="#0060AF"/>
<path d="M66.2666 1.80988L67.0002 18.9001H61.5411L61.5379 15.969H57.8155L56.5903 18.9001H50.6699L56.8595 6.69621L55.4638 6.68712L58.1157 1.80988H66.2666ZM61.5025 7.03812L59.3978 12.0091H61.5659" fill="#0060AF"/>
<path d="M35.4383 1.80988C38.1417 1.82503 39.6694 3.29263 39.6694 5.41262C39.6694 7.36696 38.0583 9.09696 36.2896 9.99149C38.1105 10.6609 38.268 12.3042 38.268 13.4668C38.268 16.2755 35.4499 18.9001 31.7867 18.9001H23.7979L26.9141 6.86621L25.6341 6.85883L28.2508 1.80988C28.2508 1.80988 33.24 1.79474 35.4383 1.80988ZM32.786 8.73895C33.3452 8.73895 34.3326 8.59734 34.5795 7.515C34.85 6.3401 33.9234 6.30848 33.4789 6.30848L31.8906 6.30152L31.3368 8.73901L32.786 8.73895ZM30.5406 11.759L29.8093 14.5677H31.6794C32.4152 14.5677 33.4179 14.2025 33.6636 13.2885C33.9063 12.3718 33.2053 11.759 32.4722 11.759" fill="#0060AF"/>
</g>
<defs>
<clipPath id="clip0">
<rect width="67" height="21" fill="white"/>
</clipPath>
</defs>
</svg>
