<svg width="118" height="89" viewBox="0 0 118 89" fill="none" xmlns="http://www.w3.org/2000/svg">
<rect x="0.5" y="0.5" width="117" height="88" fill="url(#paint0_linear)" stroke="#F4F4F4"/>
<g clip-path="url(#clip0)">
<path d="M34.8725 49.9397C34.8725 49.1027 34.8816 46.8655 34.861 46.5899C34.879 43.2609 32.4587 40.9126 30.9298 41.0957C29.8718 41.1875 28.9851 41.6189 28.509 42.8601C28.0677 44.0169 28.4622 45.5554 29.9293 45.9165C31.498 46.3042 32.4141 46.6268 33.077 47.0819C33.8893 47.6391 34.5524 48.7036 34.57 49.941" fill="#0060AF"/>
<path d="M35.4984 55C32.7324 55 29.8896 54.3186 27.0507 52.971L26.981 52.9368L26.9477 52.8658C25.6737 50.1763 25 47.2347 25 44.3566C25 41.483 25.6461 38.6672 26.921 35.9814L26.956 35.91L27.027 35.8744C29.6532 34.6302 32.4783 34 35.4265 34C38.1729 34 41.1059 34.7016 43.9072 36.0325L43.9791 36.0645L44.0122 36.1372C45.3107 38.8762 45.9954 41.8171 45.9954 44.6474C45.9954 47.4668 45.3379 50.285 44.038 53.0223L44.0037 53.0943L43.9314 53.1276C41.3454 54.3519 38.429 55 35.4984 55ZM27.3134 52.6022C30.0714 53.8996 32.8219 54.5549 35.4984 54.5549C38.3364 54.5549 41.1589 53.9345 43.6713 52.7584C44.9194 50.1059 45.552 47.3759 45.552 44.6474C45.552 41.908 44.8917 39.0584 43.6427 36.4C40.9242 35.1219 38.085 34.4441 35.4265 34.4441C32.5722 34.4441 29.8364 35.0495 27.2896 36.244C26.0671 38.8473 25.4449 41.5752 25.4449 44.3566C25.4449 47.1434 26.0915 49.9942 27.3134 52.6022Z" fill="#0060AF"/>
<path d="M34.2166 49.941C34.2217 48.8682 33.623 47.9195 32.8404 47.4096C32.1462 46.9591 31.2143 46.663 29.7109 46.2817C29.2462 46.1628 28.76 45.8987 28.6095 45.5621C28.2114 45.9632 28.1391 46.8652 28.2092 47.3922C28.2906 48.0022 29.0033 49.0075 30.0764 49.0469C30.7318 49.0732 31.5604 48.9058 31.9577 48.8214C32.6432 48.6733 33.7277 49.1027 33.9003 49.9397" fill="#0060AF"/>
<path d="M35.4267 35.9074C33.6071 35.9074 32.0354 37.1075 32.041 39.1841C32.0467 40.9304 33.4509 41.8653 33.952 42.533C34.7092 43.5392 35.1191 44.7302 35.1617 46.5526C35.1948 48.003 35.1931 49.4352 35.2005 49.9427H35.6022C35.5952 49.4117 35.577 47.8913 35.5978 46.5077C35.6251 44.6848 36.0497 43.5392 36.8072 42.533C37.3127 41.8653 38.7158 40.9304 38.7188 39.1841C38.7256 37.1075 37.1548 35.9074 35.3368 35.9074" fill="#0060AF"/>
<path d="M35.8884 49.9397C35.8884 49.1027 35.879 46.8655 35.8992 46.5899C35.8814 43.2609 38.3001 40.9126 39.8304 41.0957C40.8884 41.1875 41.7742 41.6189 42.2516 42.8601C42.6925 44.0169 42.2957 45.5554 40.8303 45.9165C39.2608 46.3042 38.3459 46.6268 37.6813 47.0819C36.87 47.6391 36.2532 48.7036 36.2343 49.941" fill="#0060AF"/>
<path d="M36.5435 49.941C36.5378 48.8682 37.1364 47.9195 37.9167 47.4096C38.6137 46.9591 39.5467 46.663 41.0488 46.2817C41.5145 46.1628 42.0001 45.8987 42.1479 45.5621C42.5479 45.9632 42.62 46.8652 42.55 47.3922C42.4669 48.0022 41.7561 49.0075 40.6848 49.0469C40.0296 49.0732 39.1967 48.9058 38.8011 48.8214C38.1183 48.6733 37.0308 49.1027 36.8574 49.9397" fill="#0060AF"/>
<path d="M37.1049 53.4046L36.8721 51.7055L37.4341 51.6203C37.571 51.6015 37.7376 51.6254 37.8042 51.7112C37.8778 51.8007 37.9004 51.8747 37.9146 51.9921C37.9358 52.1373 37.8937 52.3052 37.7302 52.3889V52.394C37.9128 52.394 38.0232 52.5252 38.0552 52.7467C38.0599 52.7935 38.0738 52.9065 38.0599 53.0008C38.0228 53.2251 37.889 53.2973 37.6632 53.3289L37.1049 53.4046ZM37.4667 53.1004C37.5333 53.0909 37.6009 53.0873 37.6537 53.0536C37.7345 53.0008 37.7271 52.8878 37.716 52.8039C37.6878 52.6195 37.6397 52.5495 37.4441 52.5784L37.3213 52.5974L37.3991 53.1098L37.4667 53.1004ZM37.3489 52.3153C37.4233 52.3032 37.5242 52.2943 37.5662 52.2236C37.5882 52.1765 37.6164 52.139 37.5979 52.0341C37.5749 51.9097 37.5337 51.8327 37.3758 51.8626L37.2287 51.8863L37.2866 52.3217" fill="#0060AF"/>
<path d="M39.5394 52.3827C39.5438 52.4143 39.5489 52.4495 39.5508 52.4811C39.5962 52.791 39.5394 53.0476 39.1911 53.1182C38.6762 53.2174 38.5776 52.8974 38.4869 52.4495L38.4386 52.2072C38.3676 51.7785 38.3371 51.4541 38.8392 51.3541C39.1222 51.3024 39.3092 51.4151 39.387 51.6968C39.3991 51.7388 39.4143 51.7804 39.42 51.8227L39.112 51.8863C39.0764 51.7804 39.0292 51.5913 38.8907 51.6072C38.6419 51.6371 38.7241 51.9467 38.7496 52.076L38.8422 52.5411C38.87 52.6818 38.9253 52.9065 39.1405 52.8632C39.3153 52.8281 39.2392 52.5559 39.2236 52.4444" fill="#0060AF"/>
<path d="M40.0338 52.8969L39.9272 51.1385L40.3411 51.0122L41.2086 52.5415L40.8828 52.639L40.6773 52.2503L40.3155 52.359L40.3623 52.8009L40.0338 52.8969ZM40.2852 52.075L40.5466 51.9993L40.1995 51.2878" fill="#0060AF"/>
<path d="M29.8133 51.5675C29.9428 51.1528 30.0588 50.8477 30.5529 50.9832C30.8173 51.057 30.9813 51.1737 30.9735 51.4809C30.9722 51.5493 30.9496 51.6189 30.9349 51.6865L30.6273 51.6015C30.6676 51.4319 30.6931 51.2973 30.4842 51.2329C30.2426 51.1667 30.1837 51.4595 30.1504 51.586L30.0253 52.047C29.9855 52.1839 29.9378 52.4101 30.1504 52.4684C30.3261 52.5157 30.4327 52.3433 30.4963 52.0915L30.281 52.0345L30.3554 51.7677L30.8614 51.9306L30.6212 52.819L30.3884 52.7558L30.4408 52.568H30.4342C30.327 52.7215 30.1962 52.7376 30.0817 52.7157C29.5757 52.5788 29.6285 52.2481 29.7493 51.8062" fill="#0060AF"/>
<path d="M31.6961 52.3179L31.5437 53.0407L31.2007 52.9665L31.5662 51.2787L32.151 51.4109C32.4932 51.4847 32.5966 51.6371 32.5481 51.9508C32.5205 52.1309 32.4317 52.3249 32.215 52.3092L32.2127 52.3063C32.3959 52.3704 32.4115 52.4628 32.3795 52.6226C32.3656 52.6906 32.2704 53.1031 32.3361 53.1697L32.3384 53.2203L31.9834 53.1277C31.9687 53.0134 32.0188 52.8078 32.0387 52.694C32.0588 52.5933 32.0908 52.4513 31.9886 52.3979C31.9085 52.3553 31.8788 52.3574 31.7883 52.3366L31.6961 52.3179ZM31.7546 52.0565L31.9855 52.1188C32.1258 52.139 32.2038 52.0663 32.2314 51.8969C32.2564 51.7414 32.224 51.6807 32.0982 51.6506L31.8506 51.6004" fill="#0060AF"/>
<path d="M33.8962 51.6559L34.2354 51.6953L34.0893 52.8817C34.0183 53.2579 33.8729 53.4224 33.4591 53.3709C33.0381 53.3177 32.9381 53.1259 32.9637 52.7467L33.1108 51.5612L33.4526 51.6004L33.3059 52.7594C33.2904 52.8853 33.2613 53.0718 33.4852 53.0943C33.6838 53.1095 33.7288 52.9779 33.7512 52.8143" fill="#0060AF"/>
<path d="M34.6099 53.4358L34.7119 51.7392L35.3637 51.7674C35.6717 51.7825 35.7523 52.0341 35.7426 52.2742C35.7337 52.4202 35.6881 52.5832 35.5609 52.6716C35.4566 52.7467 35.3226 52.7645 35.1982 52.7585L34.9858 52.7467L34.9434 53.4578L34.6099 53.4358ZM34.9955 52.4879L35.1681 52.4976C35.3084 52.5027 35.4013 52.4472 35.4134 52.2412C35.4203 52.0434 35.3455 52.0099 35.1638 52.0019L35.0269 51.9973" fill="#0060AF"/>
<path d="M80.5777 37.5473L77.9873 42.2494C77.0095 41.4554 75.8156 40.8709 74.2923 40.8709C70.6875 40.8709 69.2232 43.5583 69.2232 45.4513C69.2232 46.8565 70.1432 48.9297 73.3507 48.9297C74.697 48.9297 76.6111 47.9929 77.1619 47.5668L74.5999 53.022C73.3788 53.2657 72.9776 53.4167 71.9439 53.4487C66.2029 53.6201 63.8831 50.0931 63.8848 46.489C63.8886 41.7246 68.1241 35.9303 75.1457 35.9303C75.576 35.9303 76.1022 36.0791 76.5522 36.244L77.0069 35.6624" fill="#0060AF"/>
<path d="M91.2666 35.8099L92.0002 52.9001H86.5411L86.5379 49.969H82.8155L81.5903 52.9001H75.6699L81.8595 40.6962L80.4638 40.6871L83.1157 35.8099H91.2666ZM86.5025 41.0381L84.3978 46.0091H86.5659" fill="#0060AF"/>
<path d="M60.4383 35.8099C63.1417 35.825 64.6694 37.2926 64.6694 39.4126C64.6694 41.367 63.0583 43.097 61.2896 43.9915C63.1105 44.6609 63.268 46.3042 63.268 47.4668C63.268 50.2755 60.4499 52.9001 56.7867 52.9001H48.7979L51.9141 40.8662L50.6341 40.8588L53.2508 35.8099C53.2508 35.8099 58.24 35.7947 60.4383 35.8099ZM57.786 42.7389C58.3452 42.7389 59.3326 42.5973 59.5795 41.515C59.85 40.3401 58.9234 40.3085 58.4789 40.3085L56.8906 40.3015L56.3368 42.739L57.786 42.7389ZM55.5406 45.759L54.8093 48.5677H56.6794C57.4152 48.5677 58.4179 48.2025 58.6636 47.2885C58.9063 46.3718 58.2053 45.759 57.4722 45.759" fill="#0060AF"/>
</g>
<defs>
<linearGradient id="paint0_linear" x1="59" y1="0" x2="59" y2="89" gradientUnits="userSpaceOnUse">
<stop stop-color="#FAFAFA"/>
<stop offset="1" stop-color="#EFEFEF"/>
</linearGradient>
<clipPath id="clip0">
<rect width="67" height="21" fill="white" transform="translate(25 34)"/>
</clipPath>
</defs>
</svg>
