<svg width="119" height="89" viewBox="0 0 119 89" fill="none" xmlns="http://www.w3.org/2000/svg">
<rect x="0.5" y="0.5" width="118" height="88" fill="url(#paint0_linear)" stroke="#F4F4F4"/>
<path fill-rule="evenodd" clip-rule="evenodd" d="M26.1011 40.1822L32.1136 47.5189L26.1011 52.3383V40.1822Z" fill="#F15A23"/>
<path fill-rule="evenodd" clip-rule="evenodd" d="M28.521 52.3383L33.0451 48.6773L36.1721 52.3383H28.521Z" fill="#F15A23"/>
<path fill-rule="evenodd" clip-rule="evenodd" d="M26.1011 36.2565L27.6701 38.1764L34.1214 45.9743L36.2119 44.3641C36.2119 44.3641 34.4764 42.3877 33.3111 40.1822C31.0329 35.8704 32.6458 33.1858 32.6458 33.1858H26.1011V36.2565Z" fill="#F15A23"/>
<path fill-rule="evenodd" clip-rule="evenodd" d="M35.041 47.1781L37.17 45.4771C37.17 45.4771 39.2033 48.0662 41.5611 48.6773C44.6507 49.4781 46.0186 47.5189 46.0186 47.5189V52.3383H39.2325L40.7627 51.0585C40.7627 51.0585 39.9643 51.5733 38.0117 50.2651C36.8593 49.4929 35.041 47.1781 35.041 47.1781Z" fill="#F15A23"/>
<path fill-rule="evenodd" clip-rule="evenodd" d="M35.2366 33.1717C35.2366 33.1717 34.5574 34.0667 35.0409 36.2565C35.5576 38.5971 37.6127 41.0743 37.6079 41.0189C37.6079 41.0189 37.7401 38.5591 39.2323 37.1156C42.4131 34.0388 46.0185 35.8704 46.0185 35.8704V33.1858L35.2366 33.1717Z" fill="#F15A23"/>
<path fill-rule="evenodd" clip-rule="evenodd" d="M46.0184 39.114C46.0184 39.114 44.0069 37.4473 42.2581 37.4473C40.0209 37.4473 38.7998 39.3156 38.7998 40.6708C38.7998 42.6448 39.7793 43.7417 40.7625 44.6927C42.1753 46.0593 43.8942 47.5333 46.0184 46.347C46.0184 44.1017 46.0184 39.114 46.0184 39.114Z" fill="#F15A23"/>
<path fill-rule="evenodd" clip-rule="evenodd" d="M68.9268 33.3725H73.6735C73.6735 33.3725 77.8785 39.5314 79.945 42.0759C82.0116 44.6205 84.236 47.5189 84.236 47.5189C84.236 47.5189 84.236 39.114 84.236 34.7518C84.236 34.2004 82.7393 33.3725 82.7393 33.3725H88.213C88.213 33.3725 86.4169 34.0863 86.4169 34.7518C86.4169 40.1822 86.4169 53.3249 86.4169 53.3249C86.4169 53.3249 84.6935 52.4005 82.7393 50.2038C80.5435 47.7358 72.7327 37.7715 72.7327 37.7715C72.7327 37.7715 72.7327 47.1781 72.7327 50.6775C72.7327 51.3385 74.2294 52.3383 74.2294 52.3383H68.9268C68.9268 52.3383 70.3807 51.3304 70.3807 50.6775C70.3807 45.9743 70.3807 39.114 70.3807 34.7518C70.3807 34.1657 68.9268 33.3725 68.9268 33.3725Z" fill="#005E6A"/>
<path fill-rule="evenodd" clip-rule="evenodd" d="M91.2788 33.3725H97.3709C97.3709 33.3725 95.7351 34.1221 95.7351 34.7518C95.7351 39.114 95.7351 46.347 95.7351 50.6775C95.7351 51.3657 97.3709 52.3383 97.3709 52.3383H91.2788C91.2788 52.3383 92.8018 51.3435 92.8018 50.6775C92.8018 45.4771 92.8018 39.114 92.8018 34.7518C92.8018 34.1464 91.2788 33.3725 91.2788 33.3725Z" fill="#005E6A"/>
<path fill-rule="evenodd" clip-rule="evenodd" d="M51.0029 33.3725C51.0029 33.3725 52.5824 34.1343 52.5824 34.7518C52.5824 39.114 52.5824 45.4771 52.5824 50.6775C52.5824 51.3545 51.0029 52.3383 51.0029 52.3383C51.0029 52.3383 58.8934 52.3383 60.0282 52.3383C60.5923 52.3383 66.9101 51.339 66.9101 46.6275C66.9101 41.916 62.0025 41.4748 62.0025 41.4748C62.0025 41.4748 64.9922 40.6708 64.9922 37.4473C64.9922 33.9727 60.5923 33.3725 60.0282 33.3725C58.856 33.3725 51.0029 33.3725 51.0029 33.3725ZM55.7976 41.1626V35.2333C55.7976 35.2333 58.4137 35.2333 59.4642 35.2333C60.0282 35.2333 62.0025 35.8704 62.0025 38.234C62.0025 40.1822 60.0282 41.1626 59.4642 41.1626C58.1853 41.1626 55.7976 41.1626 55.7976 41.1626ZM55.7976 42.7177C55.7976 42.7177 59.4642 42.7177 60.0282 42.7177C60.5923 42.7177 63.9204 43.5539 63.9204 46.347C63.9204 49.1947 60.5923 50.2038 60.0282 50.2038C59.4642 50.2038 55.7976 50.2038 55.7976 50.2038V42.7177Z" fill="#005E6A"/>
<defs>
<linearGradient id="paint0_linear" x1="59.5" y1="0" x2="59.5" y2="89" gradientUnits="userSpaceOnUse">
<stop stop-color="#FAFAFA"/>
<stop offset="1" stop-color="#EFEFEF"/>
</linearGradient>
</defs>
</svg>
