<svg width="118" height="89" viewBox="0 0 118 89" fill="none" xmlns="http://www.w3.org/2000/svg">
<rect x="0.5" y="0.5" width="117" height="88" fill="url(#paint0_linear)" stroke="#F4F4F4"/>
<path fill-rule="evenodd" clip-rule="evenodd" d="M60.5867 49.7657C60.5944 49.6253 60.6024 49.4001 60.6096 49.0916V43.1738L60.5906 42.5997C60.5859 42.4775 60.58 42.3945 60.574 42.3511C60.5677 42.3051 60.5579 42.2655 60.5443 42.2289C60.5002 42.083 60.4022 41.98 60.255 41.9182C60.1193 41.8608 59.9187 41.8331 59.6582 41.831V41.6297H63.0262C63.5157 41.6305 63.9581 41.6624 64.3531 41.7263C64.7476 41.7897 65.0653 41.8774 65.3083 41.9889C66.0125 42.3239 66.3603 42.8878 66.3565 43.6901C66.3645 44.8367 65.6129 45.5692 64.057 45.7577L63.7961 45.7999C64.1461 45.8126 64.6194 45.9297 64.8396 45.9807C65.0581 46.0314 65.2723 46.1118 65.4822 46.2216C66.3081 46.6379 66.7149 47.3036 66.7069 48.2242C66.7111 49.3423 66.1677 50.0692 65.0648 50.4127C64.8239 50.4816 64.5219 50.5361 64.1567 50.5757C63.7902 50.6153 63.3923 50.6357 62.9634 50.6366H59.6582V50.4348C60.0472 50.4301 60.3148 50.3706 60.4332 50.2305C60.4828 50.1829 60.518 50.1305 60.5414 50.0705C60.5651 50.0096 60.5791 49.9058 60.5867 49.7657ZM61.6243 41.9063V45.662H62.9384C64.4667 45.653 65.2583 45.0159 65.2668 43.7403C65.2774 42.5022 64.443 41.8978 62.8256 41.9063H61.6243ZM65.5297 48.1237C65.5213 47.2482 65.2057 46.6294 64.5766 46.2834C64.3857 46.1855 64.1431 46.1101 63.8517 46.0569C63.5607 46.0042 63.2396 45.9773 62.8884 45.9761H61.6243V50.3595H62.8884C63.8042 50.3637 64.4735 50.1922 64.8858 49.8326C65.095 49.6602 65.2536 49.4261 65.3639 49.1324C65.4738 48.8388 65.5285 48.5017 65.5297 48.1237Z" fill="#3A3A3A"/>
<path d="M71.5271 50.3795C71.4588 50.2437 71.4108 50.0824 71.3901 49.67L71.3841 49.5479L71.3031 49.6394C71.2068 49.7488 71.1122 49.8432 71.0197 49.9237C70.9268 50.005 70.8191 50.088 70.6982 50.1722C70.4322 50.368 70.176 50.5059 69.9304 50.5864C69.6848 50.6664 69.4078 50.7055 69.0995 50.703C68.5624 50.7051 68.1501 50.5774 67.8553 50.3259C67.6903 50.1769 67.561 49.9901 67.4664 49.7632C67.3718 49.5368 67.3234 49.2933 67.3213 49.032C67.3277 48.0684 67.9173 47.4466 69.1232 47.1712C69.4422 47.0972 69.7794 47.0363 70.134 46.9886C70.4899 46.941 70.8929 46.9018 71.3438 46.8712L71.3901 46.0306C71.3909 45.7433 71.3769 45.5105 71.3489 45.333C71.3209 45.1534 71.2747 44.9968 71.2098 44.8644C71.0308 44.5145 70.666 44.3468 70.1387 44.3468C69.2929 44.3426 68.8343 44.7465 68.7868 45.5501C68.7818 45.6777 68.7699 45.7675 68.7533 45.822C68.7372 45.8731 68.7096 45.911 68.6706 45.9386C68.5866 45.9952 68.4526 46.028 68.26 46.0301C67.8456 46.0365 67.6903 45.9127 67.6971 45.7045C67.6997 45.4866 67.7718 45.276 67.9164 45.0729C68.0611 44.8691 68.2626 44.692 68.523 44.5409C68.9913 44.2804 69.5911 44.1476 70.3266 44.1455C71.1313 44.1476 71.6709 44.3307 71.9657 44.6801C72.0849 44.8274 72.1735 45.0091 72.2312 45.2291C72.2885 45.4492 72.3177 45.728 72.3173 46.0672L72.316 46.1391L72.3097 46.4677L72.2923 47.3355L72.2796 48.5289L72.2673 49.1069C72.2681 49.3789 72.2796 49.5862 72.2982 49.8181C72.3169 50.0441 72.3975 50.2961 72.5778 50.3629C72.7657 50.4327 72.9464 50.4604 73.2904 50.4625C73.5432 50.4574 73.7379 50.4285 73.8698 50.3723C74.0204 50.308 74.1129 50.1718 74.1528 49.9786C74.1918 49.79 74.2087 49.5032 74.2045 49.1188V45.7505C74.213 45.2921 74.16 44.9695 74.0297 44.801C73.9025 44.6363 73.6658 44.5652 73.3404 44.5686V44.3898L75.1313 44.2587V45.6901L75.2247 45.5232C75.4898 45.0495 75.7905 44.7146 76.1252 44.5133C76.4599 44.3119 76.8794 44.2123 77.3846 44.2174C78.1439 44.2072 78.6729 44.4626 78.9825 44.9729C79.0958 45.1436 79.1785 45.3496 79.2277 45.5905C79.2769 45.8318 79.3015 46.1404 79.3002 46.5162V49.1188C79.2956 49.507 79.3117 49.796 79.349 49.9837C79.3872 50.1769 79.4788 50.3127 79.6298 50.3753C79.7545 50.4268 80.0455 50.4548 80.2937 50.4617C80.5261 50.4544 80.706 50.4259 80.829 50.3719C80.9757 50.3076 81.0644 50.171 81.1021 49.9777C81.1386 49.79 81.1543 49.5027 81.1497 49.1188V42.9993C81.1543 42.6486 81.1399 42.3886 81.1047 42.2209C81.0682 42.046 80.9783 41.9255 80.8311 41.8736C80.7034 41.8285 80.5121 41.8072 80.261 41.8063V41.6271L82.1236 41.5318C82.1003 41.9468 82.0824 42.3711 82.0706 42.8048C82.0578 43.2577 82.0519 43.6531 82.0519 43.9914V48.1025L84.1041 45.8463C84.3942 45.5237 84.5529 45.2525 84.555 45.0355C84.5698 44.7333 84.2657 44.5967 83.7664 44.5716V44.3932H86.4333V44.5745C86.2729 44.5933 86.1334 44.6226 86.015 44.6635C85.8861 44.7073 85.7537 44.7712 85.6189 44.8529C85.4818 44.9359 85.3673 45.0121 85.2744 45.0814C85.1798 45.1525 85.0683 45.2534 84.9397 45.3845C84.8112 45.5152 84.6254 45.7135 84.3811 45.9799L83.7037 46.7116L85.4767 49.51C85.6791 49.8415 85.8653 50.0761 86.0362 50.2093C86.1996 50.3361 86.4078 50.4178 86.6585 50.4566V50.6396H85.0369C84.9923 50.5485 84.9312 50.4306 84.8532 50.2859L84.5953 49.8139L84.3981 49.4585L83.0856 47.3125L82.0544 48.4702L82.0519 49.1188C82.0472 49.5027 82.0629 49.79 82.0998 49.9782C82.138 50.1714 82.2279 50.308 82.3768 50.3723C82.507 50.428 82.7009 50.4574 82.9529 50.4625V50.6396H77.472V50.4621C77.8432 50.4519 78.0981 50.391 78.2003 50.2552C78.2415 50.2025 78.2724 50.1424 78.2941 50.0752C78.3161 50.0075 78.3293 49.9203 78.3356 49.8139C78.3428 49.7296 78.3505 49.6083 78.359 49.4487C78.3679 49.2887 78.3725 49.1784 78.3734 49.1197V46.592C78.3755 45.9684 78.3089 45.5071 78.1681 45.2138C77.9547 44.7524 77.5687 44.5213 77.0215 44.5192C76.4115 44.5171 75.925 44.8086 75.5644 45.3845C75.4287 45.602 75.3235 45.8497 75.2476 46.1259C75.1712 46.403 75.1326 46.6754 75.1313 46.9435V49.1188C75.1267 49.507 75.1428 49.796 75.1801 49.9837C75.2183 50.1769 75.3095 50.3127 75.4605 50.3753C75.5924 50.4297 75.7888 50.4578 76.045 50.4625V50.6396L73.3494 50.6391C73.1101 50.6472 72.655 50.6596 72.4293 50.6566C72.1926 50.6532 72.0785 50.6281 71.8626 50.6119C71.6709 50.5557 71.5903 50.5055 71.5271 50.3795ZM68.3487 48.9946C68.3533 49.404 68.4526 49.7368 68.6507 49.9879C68.8492 50.2403 69.1181 50.3697 69.4498 50.3761C69.7849 50.3714 70.1018 50.2838 70.3983 50.1135C70.694 49.9433 70.9268 49.7164 71.0957 49.4342C71.1987 49.2542 71.2738 49.0227 71.3209 48.7422C71.3676 48.463 71.3909 48.1157 71.3901 47.7007V47.0559C70.7898 47.1078 70.3606 47.1644 70.0484 47.2308C69.734 47.2976 69.4566 47.393 69.2148 47.5177C68.6409 47.8037 68.3529 48.2995 68.3487 48.9946Z" fill="#3A3A3A"/>
<path fill-rule="evenodd" clip-rule="evenodd" d="M15.611 46.8449V49.0858C15.6064 49.4454 15.6267 49.7123 15.6725 49.8864C15.7188 50.0609 15.818 50.1758 15.9712 50.232C16.1243 50.2886 16.3593 50.3201 16.6762 50.3265V50.6393H13.1694V50.3265C13.4685 50.3201 13.6895 50.2886 13.8329 50.232C13.9762 50.1758 14.0691 50.0609 14.1115 49.8864C14.154 49.7123 14.1726 49.4454 14.168 49.0858V43.1953C14.1726 42.8356 14.154 42.5683 14.1132 42.3938C14.0721 42.2193 13.983 42.1031 13.846 42.0452C13.7086 41.9869 13.4982 41.9529 13.2135 41.9422V41.629H16.5544C17.6806 41.6243 18.5052 41.8239 19.0295 42.227C19.5534 42.6305 19.8121 43.2663 19.8062 44.1346C19.8096 45.3553 19.3362 46.1541 18.3856 46.5317C18.1375 46.6291 17.821 46.7053 17.4367 46.7606C17.0524 46.8155 16.6253 46.8436 16.1548 46.8449H15.611ZM15.611 46.4955H16.1883C16.8819 46.4934 17.3922 46.3286 17.7196 46.0018C17.8978 45.8124 18.0327 45.5647 18.1247 45.2578C18.2168 44.9514 18.263 44.6011 18.2635 44.2069C18.2596 42.7233 17.6123 41.9806 16.3211 41.9784H15.611V46.4955Z" fill="#3A3A3A"/>
<path fill-rule="evenodd" clip-rule="evenodd" d="M25.4523 47.2232H21.3717C21.3763 47.6599 21.4018 48.0264 21.4484 48.3222C21.4947 48.6176 21.5693 48.8878 21.672 49.1326C22.0109 49.925 22.5343 50.3209 23.2427 50.3209C23.644 50.3187 24.008 50.2004 24.3342 49.9655C24.6608 49.7305 24.9318 49.393 25.1486 48.9521L25.4375 49.1445C25.1533 49.7118 24.8063 50.1285 24.3965 50.3945C23.9868 50.6605 23.4866 50.792 22.8962 50.7895C21.9672 50.7776 21.1133 50.4796 20.578 49.8965C20.0431 49.313 19.7704 48.5137 19.7598 47.4995C19.7704 46.4776 20.0342 45.6693 20.5509 45.0739C21.0671 44.4789 21.8921 44.1746 22.7808 44.1614C23.3721 44.1631 23.9426 44.298 24.3477 44.5665C24.7528 44.8355 25.0515 45.2288 25.2445 45.7464C25.3072 45.9183 25.3547 46.1149 25.3874 46.3363C25.4196 46.5576 25.4413 46.8534 25.4523 47.2232ZM21.3831 46.8751H23.9359C23.9257 46.5048 23.9057 46.2064 23.8765 45.9804C23.8476 45.7544 23.8018 45.5523 23.7395 45.3744C23.524 44.7436 23.1927 44.4316 22.7464 44.4376C22.2459 44.4418 21.8722 44.7938 21.6257 45.4944C21.563 45.6757 21.5125 45.8745 21.4743 46.0902C21.4361 46.306 21.4056 46.5678 21.3831 46.8751Z" fill="#3A3A3A"/>
<path d="M25.713 44.3332L27.9764 44.1761C27.9883 44.4026 27.9976 44.5932 28.0036 44.7469C28.0095 44.901 28.0125 45.0371 28.0125 45.1546V45.5172C28.5041 44.6154 29.098 44.16 29.7945 44.1519C30.0952 44.1578 30.3395 44.2459 30.5275 44.4162C30.7149 44.5864 30.8121 44.8048 30.8176 45.0703C30.8134 45.2912 30.7319 45.4683 30.5737 45.6015C30.4159 45.7352 30.2085 45.8037 29.951 45.8071C29.6418 45.8169 29.4534 45.6883 29.3851 45.4206C29.3406 45.2551 29.2944 45.1423 29.2464 45.0823C29.1989 45.0223 29.1285 44.9942 29.036 44.9976H29.0118C28.7752 45.018 28.5503 45.207 28.3378 45.5653C28.2415 45.7445 28.169 45.942 28.1206 46.1591C28.0727 46.3757 28.0485 46.6247 28.0485 46.9065V49.1414C28.0439 49.498 28.0612 49.7611 28.1003 49.93C28.1393 50.099 28.228 50.2097 28.3662 50.262C28.5041 50.3139 28.7196 50.3433 29.0118 50.3493V50.6395H25.665V50.3493C25.9378 50.3505 26.1397 50.3242 26.2712 50.2697C26.4027 50.2156 26.488 50.1024 26.5274 49.93C26.5664 49.7572 26.5838 49.4946 26.58 49.1414V45.7947C26.591 45.2968 26.5414 44.9733 26.4307 44.8239C26.3204 44.6745 26.0807 44.6077 25.713 44.623V44.3332Z" fill="#3A3A3A"/>
<path d="M33.5068 44.1766L33.5191 45.3725C34.0065 44.5673 34.7047 44.1604 35.6137 44.1523C36.5389 44.1463 37.1085 44.569 37.3232 45.4211C37.5849 44.9822 37.8835 44.6605 38.2186 44.4558C38.5542 44.2515 38.9457 44.1502 39.394 44.1523C40.1024 44.1565 40.6242 44.3898 40.9593 44.8529C41.0903 45.0282 41.1832 45.2427 41.2392 45.4964C41.2948 45.7501 41.3219 46.0791 41.3203 46.4838V49.1414C41.3164 49.4946 41.3338 49.7572 41.3729 49.9296C41.4123 50.1024 41.4976 50.2156 41.6291 50.2697C41.7606 50.3242 41.9625 50.3505 42.2356 50.3493V50.6395H38.9728V50.3493C39.2337 50.3505 39.4271 50.3242 39.5535 50.2697C39.6799 50.2156 39.7622 50.1024 39.8004 49.9296C39.8386 49.7572 39.8555 49.4946 39.8517 49.1414V46.4957C39.8543 45.8611 39.7767 45.4032 39.6184 45.1218C39.4598 44.8405 39.2049 44.7026 38.8524 44.7081C38.429 44.7001 38.0719 44.9214 37.7809 45.3725C37.5302 45.7492 37.4055 46.1557 37.4076 46.5928V49.1414C37.4038 49.4946 37.4207 49.7572 37.4593 49.9296C37.4975 50.1024 37.5811 50.2156 37.7092 50.2697C37.8373 50.3242 38.0337 50.3505 38.2984 50.3493V50.6395H35.072V50.3493C35.3329 50.3505 35.5268 50.3242 35.6527 50.2697C35.7791 50.2156 35.8614 50.1024 35.8996 49.9296C35.9378 49.7572 35.9548 49.4946 35.9509 49.1414V46.4838C35.9569 45.2878 35.632 44.6958 34.9757 44.7081C34.5673 44.7226 34.2249 44.9171 33.9492 45.2908C33.6735 45.6649 33.5301 46.131 33.5191 46.6894V49.1414C33.5153 49.4985 33.5322 49.7632 33.5704 49.9351C33.6082 50.1075 33.6905 50.2199 33.8169 50.2727C33.9433 50.3254 34.1367 50.351 34.3976 50.3493V50.6395H31.1348V50.3493C31.4079 50.351 31.6099 50.3254 31.7413 50.2727C31.8728 50.2199 31.9585 50.1075 31.9976 49.9351C32.0366 49.7632 32.054 49.4985 32.0502 49.1414V45.7833C32.0625 45.2917 32.0137 44.9733 31.9025 44.8273C31.7918 44.6818 31.5441 44.6137 31.1594 44.6234V44.3336L33.5068 44.1766Z" fill="#3A3A3A"/>
<path d="M50.7954 44.7293V48.7642C50.795 49.0268 50.8047 49.2443 50.8238 49.4162C50.8433 49.5882 50.8739 49.7333 50.9159 49.8512C50.9668 49.9861 51.0453 50.0938 51.1521 50.1742C51.2586 50.2547 51.3765 50.2964 51.5055 50.2981C51.7625 50.2943 52.0434 50.1696 52.3483 49.9236L52.5167 50.2257C52.0336 50.6322 51.4834 50.8335 50.8675 50.8297C50.2033 50.8195 49.7498 50.5982 49.5072 50.1653C49.4597 50.0695 49.4223 49.9602 49.396 49.8376C49.3697 49.715 49.3515 49.5494 49.3413 49.3413C49.3311 49.1328 49.326 48.8514 49.3265 48.4982V44.7293H48.6401V44.3671C48.9023 44.3569 49.1246 44.3016 49.307 44.2007C49.4894 44.0999 49.6484 43.942 49.7842 43.7266C49.8906 43.5627 49.9784 43.3801 50.0476 43.1801C50.1163 42.9796 50.177 42.7311 50.2296 42.434L50.8315 42.3736C50.8234 42.5336 50.8166 42.6957 50.8115 42.86C50.806 43.0243 50.8022 43.2222 50.7997 43.4538C50.7967 43.6849 50.7954 43.9815 50.7954 44.3425H52.2521V44.7293H50.7954Z" fill="#3A3A3A"/>
<path fill-rule="evenodd" clip-rule="evenodd" d="M48.6341 50.3836V50.6389C48.2816 50.6623 48.1395 50.6619 47.7692 50.6623C47.4752 50.6628 47.1711 50.6577 46.9187 50.5623C46.7626 50.5036 46.6752 50.4534 46.559 50.3299C46.4775 50.2006 46.4258 50.1937 46.3995 49.8332C46.089 50.1699 45.7653 50.4176 45.4294 50.5759C45.093 50.7347 44.7299 50.813 44.3409 50.8117C43.7632 50.8054 43.3114 50.6453 42.9852 50.3312C42.6586 50.0171 42.4928 49.5855 42.4868 49.0356C42.4847 47.9988 43.1273 47.3545 44.4135 47.1029C44.9933 46.9901 45.6512 46.9139 46.3876 46.8735V46.0883C46.394 45.4592 46.3274 45.0229 46.1891 44.7808C46.0508 44.5382 45.8039 44.4224 45.4485 44.4335C45.0714 44.4254 44.8024 44.562 44.6421 44.8442C44.5836 44.9408 44.5411 45.0523 44.514 45.1779C44.4873 45.3034 44.4656 45.4779 44.4495 45.7018C44.4398 45.9167 44.3774 46.0695 44.2629 46.1606C44.1479 46.2517 43.9651 46.296 43.7148 46.2938C43.157 46.2896 42.8762 46.1044 42.872 45.738C42.8741 45.5243 42.9398 45.3204 43.0696 45.1264C43.199 44.9323 43.3823 44.7616 43.619 44.6143C44.1203 44.3045 44.7783 44.1517 45.5931 44.1555C46.422 44.1517 47.0158 44.3164 47.3751 44.6509C47.5367 44.8037 47.6555 44.9991 47.7314 45.2366C47.8078 45.4741 47.8451 45.778 47.8447 46.1487L47.8324 47.1995L47.8205 48.2504C47.8103 48.5947 47.8065 48.8122 47.8082 48.9029C47.804 49.3383 47.818 49.6566 47.8493 49.8571C47.8807 50.058 47.9155 50.1461 48.047 50.255C48.2769 50.387 48.4737 50.3831 48.6341 50.3836ZM46.3876 48.0814V47.1514C45.5257 47.2102 44.9144 47.3702 44.5534 47.6315C44.1925 47.8929 44.0173 48.3006 44.0279 48.8548C44.0317 49.2893 44.1208 49.6341 44.2943 49.889C44.4682 50.1439 44.7044 50.2742 45.0031 50.2801C45.2483 50.2776 45.4743 50.2069 45.6818 50.0669C45.8892 49.9277 46.0525 49.7328 46.1708 49.483C46.2485 49.3297 46.304 49.1433 46.338 48.9224C46.3719 48.7015 46.3885 48.4215 46.3876 48.0814Z" fill="#3A3A3A"/>
<path fill-rule="evenodd" clip-rule="evenodd" d="M59.0003 50.3836V50.6389C58.6478 50.6623 58.5057 50.6628 58.1354 50.6632C57.8414 50.6636 57.5373 50.6585 57.2849 50.5632C57.1288 50.5044 57.0414 50.4542 56.9252 50.3308C56.8437 50.2014 56.792 50.1946 56.7657 49.8341C56.4552 50.1708 56.1315 50.4185 55.7952 50.5768C55.4592 50.7356 55.0961 50.8139 54.7071 50.8126C54.1294 50.8062 53.6776 50.6462 53.3514 50.3321C53.0248 50.018 52.859 49.5864 52.853 49.0365C52.8509 47.9997 53.4931 47.3553 54.7797 47.1038C55.3595 46.991 56.0174 46.9148 56.7538 46.8744V46.0891C56.7602 45.46 56.6936 45.0238 56.5553 44.7816C56.4166 44.539 56.1697 44.4232 55.8147 44.4343C55.4376 44.4262 55.1686 44.5628 55.0083 44.845C54.9498 44.9416 54.9069 45.0532 54.8802 45.1787C54.8535 45.3043 54.8318 45.4788 54.8157 45.7026C54.806 45.9176 54.7436 46.0704 54.6291 46.1619C54.5141 46.2525 54.3313 46.2968 54.081 46.2947C53.5232 46.2904 53.2424 46.1053 53.2382 45.7388C53.2403 45.5252 53.3061 45.3213 53.4359 45.1272C53.5652 44.9331 53.7485 44.7625 53.9848 44.6152C54.4866 44.3053 55.1445 44.1526 55.9593 44.1564C56.7882 44.1526 57.382 44.3173 57.7413 44.6518C57.9029 44.8046 58.0217 45 58.0976 45.2374C58.174 45.4749 58.2113 45.7788 58.2109 46.1495L58.1986 47.2004L58.1867 48.2512C58.1765 48.5956 58.1727 48.813 58.1744 48.9037C58.1702 49.3391 58.1842 49.6575 58.2156 49.8584C58.2469 50.0588 58.2817 50.1469 58.4132 50.2559C58.6431 50.3878 58.84 50.3831 59.0003 50.3836ZM56.7538 48.0823V47.1523C55.8919 47.211 55.2802 47.3711 54.9197 47.6324C54.5587 47.8937 54.3835 48.3015 54.3941 48.8556C54.3979 49.2902 54.487 49.6349 54.6605 49.8899C54.8344 50.1448 55.0707 50.275 55.3693 50.281C55.6145 50.2784 55.8406 50.2078 56.048 50.0678C56.2554 49.9282 56.4183 49.7337 56.5371 49.4834C56.6147 49.331 56.6703 49.1442 56.7042 48.9233C56.7381 48.7028 56.7547 48.4223 56.7538 48.0823Z" fill="#3A3A3A"/>
<path d="M83.7904 35.5265L83.7666 35.9917L92.663 46.4631L92.9824 46.5155L93.0227 46.4955L93.1788 46.2052L89.3849 33.4631L88.741 33.0277L83.7904 35.5265Z" fill="#0097B9"/>
<path fill-rule="evenodd" clip-rule="evenodd" d="M86.4214 36.5006L93.0005 46.5434L92.6505 46.4859L83.7427 35.9873L86.4214 36.5006Z" fill="#005874"/>
<path d="M88.7502 33.0165L89.3919 33.4536L87.3987 36.1129L86.4731 35.7068L88.7502 33.0165Z" fill="#2FB8E7"/>
<path d="M86.4732 35.7065L86.4215 36.5007L83.7432 35.9874L83.7712 35.5256L86.4732 35.7065Z" fill="#007592"/>
<path d="M87.3989 36.1132L89.3964 33.4497L93.2382 46.2024L93.0427 46.5323L87.3989 36.1132Z" fill="#007592"/>
<path d="M98.067 32.7754L103.819 35.4291L103.83 36.1777L94.3898 50.5257L93.9588 50.6397L93.8952 50.6104L93.7607 50.2869L97.5657 33.055L98.067 32.7754Z" fill="#80B13A"/>
<path d="M103.85 36.1759L94.4174 50.5549L93.9351 50.6958L99.9979 36.5049L103.85 36.1759Z" fill="#6E9123"/>
<path d="M98.9118 35.9055L93.8809 50.6514L93.7393 50.2897L97.559 33.0403L98.9118 35.9055Z" fill="#3F7937"/>
<path d="M103.835 35.4288L103.85 36.1758L99.9979 36.5052L99.7808 35.4816L103.835 35.4288Z" fill="#A5C550"/>
<path d="M99.7813 35.4815L98.9117 35.9046L97.5586 33.0389L98.0557 32.7576L99.7813 35.4815Z" fill="#5D8B27"/>
<path d="M89.2803 28.6929L89.5093 28.2503L96.874 28.1703L97.3499 28.6661L93.8216 40.4944L93.598 40.6246L93.5908 40.6242L93.349 40.4608L89.2803 28.6929Z" fill="#D81936"/>
<path d="M92.6641 29.4885L92.1334 30.1176L89.2554 28.6794L89.4878 28.2419L92.6641 29.4885Z" fill="#AF2C35"/>
<path d="M89.2549 28.6794L92.1334 30.1175L93.5926 40.6486L93.3372 40.4741L89.2549 28.6794Z" fill="#762624"/>
<path d="M93.5181 30.1191L97.3629 28.6609L93.8396 40.5105L93.5978 40.6484L93.5181 30.1191Z" fill="#B22B37"/>
<path d="M92.6641 29.4885L93.5175 30.1192L97.3627 28.6611L96.8813 28.1678L92.6641 29.4885Z" fill="#DC505E"/>
<defs>
<linearGradient id="paint0_linear" x1="59" y1="0" x2="59" y2="89" gradientUnits="userSpaceOnUse">
<stop stop-color="#FAFAFA"/>
<stop offset="1" stop-color="#EFEFEF"/>
</linearGradient>
</defs>
</svg>
