<svg width="90" height="91" viewBox="0 0 90 91" fill="none" xmlns="http://www.w3.org/2000/svg">
<path d="M68.3083 29.7078C69.3666 28.433 69.191 26.5416 67.9162 25.4834C66.6413 24.4251 64.75 24.6007 63.6917 25.8755L68.3083 29.7078ZM36.6 63.2083L34.3584 65.2021C34.9395 65.8555 35.7768 66.2228 36.6511 66.2079C37.5255 66.193 38.3498 65.7973 38.9083 65.1245L36.6 63.2083ZM26.2416 47.0479C25.1405 45.8099 23.2443 45.6989 22.0063 46.8C20.7682 47.9011 20.6572 49.7974 21.7584 51.0354L26.2416 47.0479ZM90 45.5C90 20.4132 69.8777 0 45 0V6C66.4973 6 84 23.6597 84 45.5H90ZM45 0C20.1223 0 0 20.4132 0 45.5H6C6 23.6597 23.5027 6 45 6V0ZM0 45.5C0 70.5868 20.1223 91 45 91V85C23.5027 85 6 67.3403 6 45.5H0ZM45 91C69.8777 91 90 70.5868 90 45.5H84C84 67.3403 66.4973 85 45 85V91ZM63.6917 25.8755L34.2917 61.2922L38.9083 65.1245L68.3083 29.7078L63.6917 25.8755ZM38.8416 61.2146L26.2416 47.0479L21.7584 51.0354L34.3584 65.2021L38.8416 61.2146Z" fill="#05BC39"/>
</svg>
