<svg width="28" height="28" viewBox="0 0 28 28" fill="none" xmlns="http://www.w3.org/2000/svg">
<path d="M1 11H0V12H1V11ZM2 11V12H3V11H2ZM26 11H25V12H26V11ZM27 11V12H28V11H27ZM7 1C7 0.447715 6.55228 0 6 0C5.44772 0 5 0.447715 5 1H7ZM5 3C5 3.55228 5.44772 4 6 4C6.55228 4 7 3.55228 7 3H5ZM23 1C23 0.447715 22.5523 0 22 0C21.4477 0 21 0.447715 21 1H23ZM21 3C21 3.55228 21.4477 4 22 4C22.5523 4 23 3.55228 23 3H21ZM4 4H24V2H4V4ZM24 4C25.1046 4 26 4.89543 26 6H28C28 3.79086 26.2091 2 24 2V4ZM26 6V24H28V6H26ZM26 24C26 25.1046 25.1046 26 24 26V28C26.2091 28 28 26.2091 28 24H26ZM24 26H4V28H24V26ZM4 26C2.89543 26 2 25.1046 2 24H0C0 26.2091 1.79086 28 4 28V26ZM2 24V6H0V24H2ZM2 6C2 4.89543 2.89543 4 4 4V2C1.79086 2 0 3.79086 0 6H2ZM22.8638 2H5.13625V4H22.8638V2ZM5.13625 2C2.28895 2 0 4.34659 0 7.2H2C2 5.42216 3.4223 4 5.13625 4V2ZM0 7.2V11H2V7.2H0ZM1 12H2V10H1V12ZM3 11C3 10.8252 3.09745 10.5668 3.33211 10.3321C3.56676 10.0975 3.82523 10 4 10V8C3.17477 8 2.43324 8.40255 1.91789 8.91789C1.40255 9.43324 1 10.1748 1 11H3ZM4 10H24V8H4V10ZM24 10C24.1748 10 24.4332 10.0975 24.6679 10.3321C24.9025 10.5668 25 10.8252 25 11H27C27 10.1748 26.5975 9.43324 26.0821 8.91789C25.5668 8.40255 24.8252 8 24 8V10ZM26 12H27V10H26V12ZM28 11V7.2H26V11H28ZM28 7.2C28 4.34659 25.711 2 22.8638 2V4C24.5777 4 26 5.42216 26 7.2H28ZM17 12.5C17 12.7761 16.7761 13 16.5 13V15C17.8807 15 19 13.8807 19 12.5H17ZM16.5 13C16.2239 13 16 12.7761 16 12.5H14C14 13.8807 15.1193 15 16.5 15V13ZM16 12.5C16 12.2239 16.2239 12 16.5 12V10C15.1193 10 14 11.1193 14 12.5H16ZM16.5 12C16.7761 12 17 12.2239 17 12.5H19C19 11.1193 17.8807 10 16.5 10V12ZM22 12.5C22 12.7761 21.7761 13 21.5 13V15C22.8807 15 24 13.8807 24 12.5H22ZM21.5 13C21.2239 13 21 12.7761 21 12.5H19C19 13.8807 20.1193 15 21.5 15V13ZM21 12.5C21 12.2239 21.2239 12 21.5 12V10C20.1193 10 19 11.1193 19 12.5H21ZM21.5 12C21.7761 12 22 12.2239 22 12.5H24C24 11.1193 22.8807 10 21.5 10V12ZM17 17.5C17 17.7761 16.7761 18 16.5 18V20C17.8807 20 19 18.8807 19 17.5H17ZM16.5 18C16.2239 18 16 17.7761 16 17.5H14C14 18.8807 15.1193 20 16.5 20V18ZM16 17.5C16 17.2239 16.2239 17 16.5 17V15C15.1193 15 14 16.1193 14 17.5H16ZM16.5 17C16.7761 17 17 17.2239 17 17.5H19C19 16.1193 17.8807 15 16.5 15V17ZM22 17.5C22 17.7761 21.7761 18 21.5 18V20C22.8807 20 24 18.8807 24 17.5H22ZM21.5 18C21.2239 18 21 17.7761 21 17.5H19C19 18.8807 20.1193 20 21.5 20V18ZM21 17.5C21 17.2239 21.2239 17 21.5 17V15C20.1193 15 19 16.1193 19 17.5H21ZM21.5 17C21.7761 17 22 17.2239 22 17.5H24C24 16.1193 22.8807 15 21.5 15V17ZM7 17.5C7 17.7761 6.77614 18 6.5 18V20C7.88071 20 9 18.8807 9 17.5H7ZM6.5 18C6.22386 18 6 17.7761 6 17.5H4C4 18.8807 5.11929 20 6.5 20V18ZM6 17.5C6 17.2239 6.22386 17 6.5 17V15C5.11929 15 4 16.1193 4 17.5H6ZM6.5 17C6.77614 17 7 17.2239 7 17.5H9C9 16.1193 7.88071 15 6.5 15V17ZM12 17.5C12 17.7761 11.7761 18 11.5 18V20C12.8807 20 14 18.8807 14 17.5H12ZM11.5 18C11.2239 18 11 17.7761 11 17.5H9C9 18.8807 10.1193 20 11.5 20V18ZM11 17.5C11 17.2239 11.2239 17 11.5 17V15C10.1193 15 9 16.1193 9 17.5H11ZM11.5 17C11.7761 17 12 17.2239 12 17.5H14C14 16.1193 12.8807 15 11.5 15V17ZM7 22.5C7 22.7761 6.77614 23 6.5 23V25C7.88071 25 9 23.8807 9 22.5H7ZM6.5 23C6.22386 23 6 22.7761 6 22.5H4C4 23.8807 5.11929 25 6.5 25V23ZM6 22.5C6 22.2239 6.22386 22 6.5 22V20C5.11929 20 4 21.1193 4 22.5H6ZM6.5 22C6.77614 22 7 22.2239 7 22.5H9C9 21.1193 7.88071 20 6.5 20V22ZM12 22.5C12 22.7761 11.7761 23 11.5 23V25C12.8807 25 14 23.8807 14 22.5H12ZM11.5 23C11.2239 23 11 22.7761 11 22.5H9C9 23.8807 10.1193 25 11.5 25V23ZM11 22.5C11 22.2239 11.2239 22 11.5 22V20C10.1193 20 9 21.1193 9 22.5H11ZM11.5 22C11.7761 22 12 22.2239 12 22.5H14C14 21.1193 12.8807 20 11.5 20V22ZM17 22.5C17 22.7761 16.7761 23 16.5 23V25C17.8807 25 19 23.8807 19 22.5H17ZM16.5 23C16.2239 23 16 22.7761 16 22.5H14C14 23.8807 15.1193 25 16.5 25V23ZM16 22.5C16 22.2239 16.2239 22 16.5 22V20C15.1193 20 14 21.1193 14 22.5H16ZM16.5 22C16.7761 22 17 22.2239 17 22.5H19C19 21.1193 17.8807 20 16.5 20V22ZM5 1V3H7V1H5ZM21 1V3H23V1H21Z" fill="#5A595A"/>
</svg>
