<svg width="21" height="21" viewBox="0 0 21 21" fill="none" xmlns="http://www.w3.org/2000/svg">
<path fill-rule="evenodd" clip-rule="evenodd" d="M17.193 2.92446C16.2626 1.99371 15.1574 1.25616 13.9409 0.754263C12.7244 0.252368 11.4207 -0.00395601 10.1047 4.61526e-05C4.58203 4.61526e-05 0.08625 4.47337 0.0840039 9.9727C0.0815607 11.7238 0.543148 13.4443 1.42178 14.959L0 20.125L5.31201 18.7383C6.7824 19.5349 8.42839 19.9518 10.1007 19.9512H10.1047C15.627 19.9512 20.1223 15.4774 20.125 9.97854C20.1283 8.66707 19.8708 7.36803 19.3675 6.15701C18.8641 4.94598 18.1249 3.84716 17.193 2.92446ZM10.1047 18.268H10.1011C8.61035 18.2684 7.14667 17.8695 5.86231 17.1126L5.55818 16.9329L2.40602 17.7559L3.2474 14.6971L3.0493 14.3827C2.21572 13.063 1.77408 11.5336 1.77576 9.9727C1.77576 5.4028 5.51371 1.68462 10.1079 1.68462C12.3117 1.68068 14.4269 2.5523 15.9882 4.10776C17.5495 5.66322 18.429 7.77513 18.4332 9.97899C18.4314 14.5493 14.6953 18.268 10.1047 18.268ZM14.6728 12.0602C14.4226 11.9353 13.1904 11.3325 12.9622 11.2494C12.734 11.1663 12.5655 11.1245 12.3989 11.3743C12.2322 11.624 11.752 12.1829 11.606 12.3513C11.46 12.5198 11.314 12.5382 11.0638 12.4133C10.8136 12.2884 10.0063 12.0256 9.04996 11.1766C8.30561 10.5158 7.80338 9.70003 7.65738 9.45071C7.51139 9.20139 7.64166 9.06618 7.76699 8.94219C7.87975 8.83034 8.01721 8.6511 8.14254 8.50555C8.26787 8.36001 8.30965 8.25579 8.39275 8.08958C8.47586 7.92337 8.43453 7.77782 8.37209 7.65339C8.30965 7.52895 7.80877 6.30214 7.60033 5.80305C7.39684 5.317 7.19064 5.38303 7.03701 5.3754C6.89102 5.36821 6.72256 5.36641 6.5568 5.36641C6.43008 5.36971 6.3054 5.3991 6.19054 5.45274C6.07569 5.50638 5.97313 5.58312 5.88926 5.67817C5.65971 5.92794 5.01283 6.53169 5.01283 7.75715C5.01283 8.98262 5.91127 10.1686 6.03525 10.3348C6.15924 10.501 7.80068 13.018 10.3123 14.0974C10.7786 14.2972 11.2552 14.4723 11.7399 14.6221C12.3396 14.8117 12.8854 14.7852 13.3166 14.7209C13.7978 14.6495 14.7991 14.1181 15.0071 13.5359C15.215 12.9537 15.2155 12.4551 15.153 12.3513C15.0906 12.2475 14.9235 12.1847 14.6728 12.0602Z" fill="#DD7BAA"/>
</svg>
