<svg width="96" height="78" viewBox="0 0 96 78" fill="none" xmlns="http://www.w3.org/2000/svg">
<path d="M9.42857 62.1818C7.77172 62.1818 6.42857 63.525 6.42857 65.1818C6.42857 66.8387 7.77172 68.1818 9.42857 68.1818V62.1818ZM86.5714 68.1818C88.2283 68.1818 89.5714 66.8387 89.5714 65.1818C89.5714 63.525 88.2283 62.1818 86.5714 62.1818V68.1818ZM15.8571 72C14.2003 72 12.8571 73.3431 12.8571 75C12.8571 76.6569 14.2003 78 15.8571 78V72ZM80.1429 78C81.7997 78 83.1429 76.6569 83.1429 75C83.1429 73.3431 81.7997 72 80.1429 72V78ZM93 22.3636C94.6569 22.3636 96 21.0205 96 19.3636C96 17.7068 94.6569 16.3636 93 16.3636V22.3636ZM79.9286 3C79.9286 1.34315 78.5854 0 76.9286 0C75.2717 0 73.9286 1.34315 73.9286 3H79.9286ZM3 16.3636C1.34315 16.3636 0 17.7068 0 19.3636C0 21.0205 1.34315 22.3636 3 22.3636V16.3636ZM22.0714 3C22.0714 1.34315 20.7283 0 19.0714 0C17.4146 0 16.0714 1.34315 16.0714 3H22.0714ZM93 42C94.6569 42 96 40.6569 96 39C96 37.3431 94.6569 36 93 36V42ZM73.9286 55.3636C73.9286 57.0205 75.2717 58.3636 76.9286 58.3636C78.5854 58.3636 79.9286 57.0205 79.9286 55.3636H73.9286ZM3 36C1.34315 36 0 37.3431 0 39C0 40.6569 1.34315 42 3 42V36ZM16.0714 55.3636C16.0714 57.0205 17.4146 58.3636 19.0714 58.3636C20.7283 58.3636 22.0714 57.0205 22.0714 55.3636H16.0714ZM89.7857 52.3636H6.21429V58.3636H89.7857V52.3636ZM6.21429 52.3636C6.17222 52.3636 6.12841 52.3504 6.08179 52.303C6.03423 52.2545 6 52.1846 6 52.0909H0C0 55.5041 2.7315 58.3636 6.21429 58.3636V52.3636ZM6 52.0909V6.27273H0V52.0909H6ZM6 6.27273C6 6.179 6.03423 6.10911 6.08179 6.06068C6.12841 6.01321 6.17222 6 6.21429 6V0C2.7315 0 0 2.85958 0 6.27273H6ZM6.21429 6H89.7857V0H6.21429V6ZM89.7857 6C89.8278 6 89.8716 6.01321 89.9182 6.06068C89.9658 6.10911 90 6.179 90 6.27273H96C96 2.85958 93.2685 0 89.7857 0V6ZM90 6.27273V52.0909H96V6.27273H90ZM90 52.0909C90 52.1846 89.9658 52.2545 89.9182 52.303C89.8716 52.3504 89.8278 52.3636 89.7857 52.3636V58.3636C93.2685 58.3636 96 55.5041 96 52.0909H90ZM9.42857 68.1818H86.5714V62.1818H9.42857V68.1818ZM15.8571 78H80.1429V72H15.8571V78ZM61.0714 29.1818C61.0714 36.6135 55.1684 42.5455 48 42.5455V48.5455C58.5836 48.5455 67.0714 39.8249 67.0714 29.1818H61.0714ZM48 42.5455C40.8316 42.5455 34.9286 36.6135 34.9286 29.1818H28.9286C28.9286 39.8249 37.4164 48.5455 48 48.5455V42.5455ZM34.9286 29.1818C34.9286 21.7501 40.8316 15.8182 48 15.8182V9.81818C37.4164 9.81818 28.9286 18.5388 28.9286 29.1818H34.9286ZM48 15.8182C55.1684 15.8182 61.0714 21.7501 61.0714 29.1818H67.0714C67.0714 18.5388 58.5836 9.81818 48 9.81818V15.8182ZM93 16.3636C89.5509 16.3636 86.2318 14.9691 83.7761 12.4687L79.4954 16.673C83.0677 20.3102 87.9243 22.3636 93 22.3636V16.3636ZM83.7761 12.4687C81.3186 9.96653 79.9286 6.56152 79.9286 3H73.9286C73.9286 8.11829 75.925 13.0376 79.4954 16.673L83.7761 12.4687ZM3 22.3636C5.51207 22.3636 7.99824 21.8598 10.3161 20.8823L7.98447 15.3538C6.40255 16.021 4.70899 16.3636 3 16.3636V22.3636ZM10.3161 20.8823C12.6338 19.9048 14.7361 18.4735 16.5046 16.673L12.2239 12.4687C11.0076 13.7071 9.56652 14.6866 7.98447 15.3538L10.3161 20.8823ZM16.5046 16.673C18.2729 14.8725 19.6728 12.738 20.6269 10.3926L15.0692 8.13161C14.408 9.75688 13.4403 11.2302 12.2239 12.4687L16.5046 16.673ZM20.6269 10.3926C21.581 8.04729 22.0714 5.53544 22.0714 3H16.0714C16.0714 4.76236 15.7304 6.50625 15.0692 8.13161L20.6269 10.3926ZM93 36C87.9243 36 83.0677 38.0535 79.4954 41.6907L83.7761 45.8949C86.2318 43.3946 89.5509 42 93 42V36ZM79.4954 41.6907C75.925 45.326 73.9286 50.2453 73.9286 55.3636H79.9286C79.9286 51.8021 81.3186 48.3971 83.7761 45.8949L79.4954 41.6907ZM3 42C4.70899 42 6.40255 42.3427 7.98447 43.0098L10.3161 37.4814C7.99824 36.5039 5.51207 36 3 36V42ZM7.98447 43.0098C9.56652 43.677 11.0076 44.6565 12.2239 45.8949L16.5046 41.6907C14.7361 39.8901 12.6338 38.4589 10.3161 37.4814L7.98447 43.0098ZM12.2239 45.8949C13.4403 47.1335 14.408 48.6068 15.0692 50.232L20.6269 47.9711C19.6728 45.6257 18.2729 43.4911 16.5046 41.6907L12.2239 45.8949ZM15.0692 50.232C15.7304 51.8574 16.0714 53.6013 16.0714 55.3636H22.0714C22.0714 52.8282 21.581 50.3163 20.6269 47.9711L15.0692 50.232Z" fill="#FAD77E"/>
</svg>
